<svg xmlns="http://www.w3.org/2000/svg" width="1200" height="630" viewBox="0 0 1200 630" role="img" aria-labelledby="title desc">
  <title id="title">OmegaFlow</title>
  <desc id="desc">OmegaFlow logo with the message Rebuildable terminal demos.</desc>
  <rect width="1200" height="630" fill="#10131a"/>
  <circle cx="1030" cy="90" r="260" fill="#8b7cff" opacity=".08"/>
  <circle cx="1120" cy="590" r="300" fill="#ffc247" opacity=".05"/>
  <g transform="translate(92 148) scale(1.28)">
    <path d="M34 205h64v-31c-29-13-47-39-47-71 0-46 33-79 77-79s77 33 77 79c0 32-18 58-47 71v31h64"
          fill="none" stroke="#8b7cff" stroke-linecap="round" stroke-linejoin="round" stroke-width="34"/>
    <path d="m110 71 58 35-58 35z" fill="#ffc247"/>
  </g>
  <text x="470" y="270" fill="#f5f6fa" font-family="Inter, ui-sans-serif, system-ui, sans-serif" font-size="86" font-weight="800">OmegaFlow</text>
  <text x="474" y="355" fill="#b9c0cf" font-family="Inter, ui-sans-serif, system-ui, sans-serif" font-size="40" font-weight="600">Rebuildable terminal demos.</text>
  <rect x="474" y="402" width="170" height="8" rx="4" fill="#8b7cff"/>
  <rect x="650" y="402" width="68" height="8" rx="4" fill="#ffc247"/>
</svg>
